<?xml version="1.0" encoding="utf-8"?>
<!-- Generator: Adobe Illustrator 28.2.0, SVG Export Plug-In . SVG Version: 6.00 Build 0)  -->
<svg version="1.1" id="Layer_1" xmlns="http://www.w3.org/2000/svg" xmlns:xlink="http://www.w3.org/1999/xlink" x="0px" y="0px"
	 viewBox="0 0 200 200" style="enable-background:new 0 0 200 200;" xml:space="preserve">
<style type="text/css">
	.st0{fill:url(#SVGID_1_);}
	.st1{fill:#1D1D1B;}
	.st2{fill:#93B1C2;}
	.st3{fill:#B2BBC8;}
	.st4{fill:#8996A7;}
	.st5{fill:#FFFFFF;}
	.st6{fill:#392830;}
	.st7{fill:#B59AAD;}
	.st8{fill:url(#SVGID_00000075884907409630163170000017447726073208199825_);}
	.st9{fill:url(#SVGID_00000095336246264482632270000004639211866910677431_);}
	.st10{fill:#B2DBD5;}
	.st11{fill:#E0CDCF;}
	.st12{fill:url(#SVGID_00000166677804787367933220000010304417678011163831_);}
	.st13{fill:none;stroke:#216A22;stroke-width:0.6;stroke-miterlimit:10;}
</style>
<g>
	<g>
		<linearGradient id="SVGID_1_" gradientUnits="userSpaceOnUse" x1="99.9664" y1="174.2841" x2="99.9664" y2="24.9765">
			<stop  offset="0" style="stop-color:#B1B1B1"/>
			<stop  offset="0.5" style="stop-color:#C3CAD2"/>
			<stop  offset="1" style="stop-color:#F5F5F5"/>
		</linearGradient>
		<path class="st0" d="M174.62,99.63c0,41.23-33.42,74.65-74.65,74.65c-41.23,0-74.65-33.42-74.65-74.65
			c0-41.23,33.42-74.65,74.65-74.65C141.2,24.98,174.62,58.4,174.62,99.63z"/>
		<path class="st1" d="M99.97,175.42c-41.79,0-75.79-34-75.79-75.79c0-41.79,34-75.79,75.79-75.79c41.79,0,75.79,34,75.79,75.79
			C175.76,141.42,141.76,175.42,99.97,175.42z M99.97,26.11c-40.54,0-73.52,32.98-73.52,73.52c0,40.54,32.98,73.52,73.52,73.52
			c40.54,0,73.51-32.98,73.51-73.52C173.48,59.09,140.5,26.11,99.97,26.11z"/>
	</g>
	<path class="st2" d="M41.65,124.22c0.36-0.17,2.39,5.09,7.74,12.21c2.68,3.54,6.24,7.49,10.8,11.16
		c4.53,3.71,10.08,7.09,16.33,9.67c6.27,2.51,12.61,3.97,18.44,4.47c5.83,0.55,11.14,0.21,15.53-0.46
		c8.8-1.36,13.93-3.71,14.07-3.34c0.04,0.09-0.57,0.44-1.76,1c-0.59,0.29-1.33,0.63-2.22,0.95c-0.89,0.33-1.9,0.76-3.07,1.1
		c-4.62,1.5-11.51,3.03-19.79,2.79c4.22,1.11,6.97,2.03,7.07,3.37c0.1,1.31-2.55,2.85-7.33,3.62c9.18,0.45,16.91-0.98,22.19-2.34
		c5.29-1.38,8.25-2.58,8.35-2.34c0.05,0.12-1.35,0.87-4.02,1.97c-2.67,1.08-6.66,2.4-11.75,3.38c-5.08,0.98-11.29,1.54-18.15,1.01
		c-6.85-0.48-14.31-2.12-21.67-5.08c-7.33-3.02-13.83-7.05-19.06-11.49c-5.28-4.41-9.33-9.14-12.29-13.39
		c-2.96-4.25-4.89-7.98-6.06-10.62c-1.14-2.65-1.62-4.17-1.5-4.22c0.23-0.1,1.52,2.82,4.34,7.51c2.84,4.66,7.37,11.07,14.26,17.16
		c-2.88-3.89-3.71-6.84-2.72-7.71c1.01-0.89,3.63,0.37,7.42,2.52c-6.1-5.61-9.96-11.52-12.23-15.81c-0.6-1.06-1.03-2.07-1.43-2.93
		c-0.41-0.85-0.7-1.61-0.92-2.23C41.76,124.94,41.56,124.26,41.65,124.22z M75.74,159.18c-4.67-1.91-8.81-3.87-11.96-5.21
		c-1.56-0.69-2.9-1.17-3.89-1.44c-1-0.25-1.71-0.23-2,0.14c-0.29,0.37-0.14,1.04,0.41,1.96c0.53,0.94,1.5,2.06,2.81,3.32
		c2.64,2.49,6.85,5.37,12,7.48l0.07,0.03l0.07,0.03c5.17,2.08,10.18,2.96,13.82,3.02c1.82,0.02,3.3-0.11,4.33-0.42
		c1.03-0.28,1.61-0.66,1.66-1.12c0.05-0.47-0.44-0.98-1.33-1.5c-0.9-0.5-2.2-1.08-3.79-1.68C84.75,162.57,80.42,161.07,75.74,159.18
		z"/>
	<path class="st3" d="M36.62,136.2c3.91,6.79,8.95,12.2,13.69,15.87c4.74,3.71,9.14,5.75,12.04,6.46
		c5.14,3.39,11.02,6.17,17.37,8.15c3.18,0.99,6.49,1.7,9.87,2.25c3.39,0.5,6.86,0.74,10.37,0.78c3.51-0.04,6.98-0.28,10.37-0.78
		c3.38-0.55,6.69-1.26,9.87-2.25c6.35-1.97,12.23-4.75,17.37-8.15c2.91-0.71,7.3-2.75,12.04-6.46c4.74-3.67,9.79-9.08,13.69-15.87
		c2.65-4.58,4.54-9.3,5.7-13.71c1.18-4.42,1.64-8.51,1.7-11.93c0-6.89-1.58-10.96-3.03-10.93l0,0l0,0
		c-1.56,0.01-2.75,3.93-4.61,9.76c-1.91,5.82-4.67,13.56-9.22,21.34c-6.62,11.59-15.17,19.66-18.67,24.09
		c-4.87,3.09-10.39,5.62-16.33,7.41c-2.97,0.9-6.06,1.54-9.22,2.04c-3.16,0.46-6.4,0.67-9.67,0.71c-3.27-0.04-6.51-0.25-9.67-0.71
		c-3.15-0.5-6.25-1.14-9.22-2.04c-5.94-1.79-11.46-4.32-16.33-7.41c-3.49-4.42-12.05-12.5-18.67-24.09
		c-4.55-7.78-7.3-15.52-9.22-21.34c-1.85-5.82-3.04-9.75-4.61-9.76c-1.44-0.02-3.03,4.04-3.03,10.93c0.05,3.42,0.52,7.52,1.7,11.93
		C32.09,126.91,33.97,131.63,36.62,136.2z"/>
	<path class="st4" d="M42.75,145.12c0.53,0.65,1.06,1.29,1.59,1.92c0.52,0.64,1.05,1.25,1.64,1.8c1.14,1.13,2.28,2.22,3.39,3.26
		c1.16,0.99,2.35,1.86,3.47,2.72c0.57,0.42,1.12,0.84,1.68,1.22l1.71,1.02c1.12,0.65,2.19,1.25,3.2,1.79
		c1.04,0.49,2.06,0.88,2.99,1.24c0.94,0.35,1.8,0.64,2.59,0.87c0.8,0.22,1.56,0.31,2.21,0.39c1.17,0.61,2.36,1.23,3.55,1.86
		c1.25,0.52,2.5,1.05,3.77,1.59c0.64,0.26,1.27,0.55,1.92,0.78c0.66,0.21,1.33,0.43,2,0.64c1.34,0.41,2.67,0.91,4.06,1.24
		c5.53,1.45,11.42,2.15,17.44,2.26c6.02-0.12,11.91-0.81,17.44-2.26c1.39-0.33,2.72-0.83,4.06-1.24c0.67-0.21,1.33-0.43,2-0.64
		c0.66-0.23,1.29-0.52,1.92-0.78c1.27-0.53,2.53-1.06,3.77-1.59c1.2-0.63,2.38-1.25,3.55-1.86c0.65-0.08,1.41-0.17,2.21-0.39
		c0.79-0.23,1.66-0.52,2.59-0.87c0.93-0.36,1.95-0.74,2.99-1.24c1.01-0.54,2.08-1.13,3.2-1.79l1.71-1.02
		c0.56-0.38,1.11-0.8,1.68-1.22c1.12-0.85,2.32-1.73,3.47-2.72c1.11-1.04,2.24-2.12,3.39-3.26c0.59-0.55,1.12-1.17,1.64-1.8
		c0.53-0.64,1.05-1.27,1.59-1.92c2.85-3.53,5.05-7.29,6.69-10.85l0.62-1.31c0.18-0.44,0.33-0.89,0.49-1.33
		c0.31-0.87,0.61-1.72,0.88-2.55c0.26-0.83,0.56-1.61,0.73-2.4c0.17-0.79,0.33-1.55,0.46-2.28c0.25-1.46,0.51-2.75,0.53-3.95
		c0.02-1.19-0.02-2.22-0.13-3.07c-0.22-1.7-0.69-2.68-1.43-2.85h0h0c-0.74-0.16-1.66,0.5-2.68,1.77c-0.51,0.64-1.05,1.43-1.6,2.35
		c-0.55,0.92-1.28,1.92-1.93,3.06c-2.71,4.53-6.33,10.56-11.17,16.58c-0.45,0.56-0.89,1.11-1.33,1.66c-0.43,0.56-0.85,1.1-1.33,1.59
		c-0.92,1.01-1.81,2.02-2.66,3.02c-0.89,0.92-1.77,1.83-2.64,2.73l-1.24,1.32l-1.26,1.19c-0.81,0.78-1.58,1.55-2.29,2.3
		c-0.74,0.7-1.46,1.34-2.1,1.98c-0.64,0.63-1.23,1.24-1.74,1.83c-0.52,0.57-1.01,1.04-1.41,1.52c-1.11,0.55-2.23,1.11-3.36,1.68
		c-1.17,0.47-2.36,0.94-3.55,1.42c-0.6,0.23-1.19,0.5-1.81,0.71c-0.62,0.19-1.25,0.38-1.87,0.57c-1.26,0.36-2.5,0.83-3.8,1.12
		c-5.17,1.3-10.66,1.92-16.28,2.04c-5.62-0.12-11.1-0.73-16.28-2.04c-1.3-0.29-2.54-0.75-3.8-1.12c-0.63-0.19-1.25-0.38-1.87-0.57
		c-0.62-0.21-1.21-0.47-1.81-0.71c-1.2-0.48-2.38-0.95-3.55-1.42c-1.13-0.57-2.25-1.13-3.36-1.68c-0.39-0.48-0.88-0.95-1.41-1.52
		c-0.51-0.58-1.1-1.19-1.74-1.82c-0.64-0.64-1.36-1.28-2.1-1.98c-0.71-0.75-1.48-1.52-2.29-2.3l-1.26-1.19l-1.24-1.32
		c-0.87-0.9-1.75-1.81-2.64-2.73c-0.85-1-1.73-2.01-2.66-3.02c-0.48-0.49-0.91-1.04-1.34-1.6c-0.44-0.55-0.88-1.1-1.33-1.66
		c-4.85-6.02-8.47-12.06-11.17-16.59c-0.66-1.14-1.39-2.14-1.93-3.06c-0.55-0.92-1.09-1.71-1.6-2.35c-1.02-1.27-1.95-1.93-2.68-1.77
		c-0.74,0.17-1.21,1.15-1.43,2.85c-0.11,0.85-0.15,1.88-0.13,3.07c0.02,1.19,0.28,2.49,0.53,3.95c0.13,0.73,0.29,1.49,0.46,2.28
		c0.17,0.79,0.47,1.57,0.73,2.4c0.27,0.82,0.57,1.67,0.88,2.55c0.16,0.44,0.31,0.88,0.49,1.33l0.62,1.31
		C37.69,137.83,39.9,141.59,42.75,145.12z"/>
	<path class="st5" d="M29.95,83.82c-0.07-0.02,0.04-0.69,0.31-1.95c0.15-0.64,0.32-1.42,0.53-2.34c0.11-0.46,0.23-0.96,0.36-1.49
		c0.13-0.53,0.34-1.07,0.53-1.66c0.4-1.17,0.84-2.47,1.33-3.88c0.53-1.4,1.24-2.87,1.94-4.48c0.66-1.63,1.65-3.23,2.59-4.98
		c0.91-1.78,2.14-3.49,3.36-5.33c0.31-0.46,0.62-0.92,0.94-1.39c0.34-0.46,0.7-0.89,1.06-1.35c0.72-0.9,1.46-1.83,2.22-2.77
		l0.57-0.71l0.63-0.67c0.42-0.45,0.85-0.9,1.28-1.35c0.88-0.9,1.71-1.87,2.68-2.74c1.95-1.72,3.89-3.61,6.16-5.2
		c0.56-0.42,1.11-0.84,1.68-1.26c0.56-0.43,1.13-0.85,1.74-1.22c1.21-0.76,2.43-1.53,3.68-2.31c5.09-2.89,10.73-5.5,16.9-7.2
		c6.17-1.68,12.76-2.64,19.54-2.71c6.78,0.07,13.37,1.03,19.53,2.71c6.17,1.7,11.81,4.31,16.9,7.2c1.24,0.78,2.47,1.55,3.67,2.31
		c0.62,0.36,1.18,0.79,1.74,1.22c0.56,0.42,1.12,0.84,1.68,1.26c2.28,1.6,4.21,3.49,6.16,5.2c0.97,0.87,1.8,1.85,2.68,2.74
		c0.43,0.46,0.86,0.91,1.28,1.36l0.63,0.67l0.57,0.71c0.75,0.94,1.5,1.87,2.22,2.77c0.36,0.45,0.73,0.89,1.06,1.35
		c0.32,0.47,0.63,0.93,0.94,1.39c1.23,1.84,2.46,3.55,3.36,5.33c0.95,1.75,1.93,3.35,2.59,4.98c0.7,1.61,1.41,3.08,1.94,4.48
		c0.48,1.42,0.93,2.71,1.33,3.88c0.19,0.59,0.4,1.13,0.53,1.66c0.13,0.53,0.25,1.03,0.36,1.49c0.21,0.92,0.38,1.7,0.53,2.34
		c0.27,1.27,0.38,1.93,0.31,1.95c-0.1,0.02-0.55-1.27-1.3-3.69c-0.19-0.61-0.39-1.28-0.62-2.02c-0.28-0.72-0.59-1.51-0.92-2.36
		c-0.33-0.85-0.69-1.76-1.07-2.73c-0.36-0.98-0.91-1.95-1.4-3c-0.52-1.04-1.02-2.17-1.64-3.3c-0.65-1.11-1.33-2.27-2.04-3.47
		c-0.67-1.23-1.54-2.4-2.41-3.63c-0.88-1.22-1.72-2.54-2.79-3.74c-1.04-1.22-2.05-2.55-3.22-3.78c-1.19-1.22-2.42-2.46-3.67-3.74
		c-1.35-1.18-2.74-2.38-4.16-3.61c-1.48-1.15-3.05-2.26-4.62-3.43c1.49,1.4,2.79,2.68,3.88,3.83c1.02,1.24,1.84,2.35,2.45,3.28
		c1.27,1.84,1.55,3.21,1.09,3.66c-0.49,0.49-1.67,0.03-3.64-0.85c-0.97-0.46-2.1-1.08-3.36-1.83c-1.34-0.66-2.81-1.44-4.41-2.33
		c1.4,1.07,2.8,2.09,4.13,3.14c1.26,1.13,2.49,2.23,3.7,3.31c1.11,1.17,2.19,2.31,3.25,3.43c1.04,1.13,1.91,2.34,2.82,3.45
		c0.95,1.09,1.67,2.3,2.43,3.41c0.75,1.12,1.51,2.18,2.07,3.3c0.6,1.09,1.18,2.15,1.74,3.15c0.52,1.02,0.92,2.05,1.35,2.99
		c0.4,0.96,0.87,1.83,1.14,2.72c0.3,0.88,0.57,1.7,0.83,2.47c0.25,0.77,0.5,1.47,0.7,2.13c0.15,0.67,0.29,1.27,0.42,1.82
		c0.49,2.18,0.72,3.35,0.62,3.38c-0.07,0.02-0.3-0.54-0.66-1.61c-0.18-0.54-0.39-1.21-0.64-1.98c-0.12-0.39-0.25-0.82-0.39-1.27
		c-0.14-0.45-0.36-0.91-0.55-1.41c-0.39-0.99-0.83-2.09-1.3-3.3c-0.5-1.19-1.18-2.43-1.82-3.8c-0.6-1.39-1.51-2.73-2.36-4.22
		c-0.81-1.51-1.92-2.95-3-4.5c-0.27-0.39-0.55-0.78-0.83-1.18c-0.3-0.38-0.62-0.75-0.94-1.13c-0.64-0.76-1.29-1.54-1.95-2.34
		l-0.5-0.6l-0.55-0.56c-0.37-0.38-0.74-0.76-1.12-1.14c-0.77-0.75-1.48-1.58-2.33-2.31c-1.71-1.43-3.36-3.04-5.33-4.37
		c-0.48-0.35-0.96-0.7-1.44-1.06c-0.48-0.36-0.97-0.72-1.5-1.02c-1.04-0.64-2.09-1.29-3.15-1.94c-4.37-2.41-9.16-4.6-14.41-6.02
		c-5.25-1.39-10.84-2.2-16.61-2.27c-5.77,0.07-11.36,0.88-16.61,2.27c-5.25,1.42-10.05,3.61-14.42,6.02
		c-1.06,0.65-2.12,1.3-3.15,1.94c-0.53,0.3-1.02,0.66-1.5,1.02c-0.48,0.36-0.97,0.71-1.44,1.06c-1.97,1.33-3.63,2.94-5.33,4.37
		c-0.84,0.73-1.56,1.56-2.33,2.31c-0.38,0.38-0.75,0.76-1.12,1.14l-0.55,0.56l-0.5,0.6c-0.66,0.79-1.31,1.57-1.95,2.34
		c-0.31,0.38-0.64,0.75-0.94,1.13c-0.28,0.4-0.55,0.79-0.83,1.18c-1.08,1.56-2.19,2.99-3,4.5c-0.85,1.48-1.76,2.83-2.36,4.22
		c-0.64,1.36-1.32,2.61-1.82,3.8c-0.47,1.2-0.91,2.3-1.3,3.3c-0.19,0.5-0.41,0.96-0.55,1.41c-0.14,0.45-0.27,0.87-0.39,1.27
		c-0.25,0.78-0.46,1.44-0.64,1.98c-0.36,1.07-0.59,1.62-0.66,1.61c-0.1-0.02,0.12-1.19,0.62-3.38c0.13-0.55,0.27-1.16,0.42-1.82
		c0.2-0.65,0.45-1.36,0.7-2.13c0.26-0.77,0.54-1.59,0.83-2.47c0.28-0.89,0.75-1.76,1.14-2.72c0.43-0.95,0.84-1.97,1.35-2.99
		c0.55-1.01,1.13-2.06,1.74-3.15c0.56-1.12,1.32-2.18,2.07-3.3c0.76-1.11,1.48-2.32,2.43-3.41c0.92-1.11,1.79-2.33,2.82-3.45
		c1.05-1.11,2.14-2.25,3.25-3.42c1.2-1.08,2.44-2.18,3.7-3.31c1.32-1.05,2.72-2.07,4.13-3.14c-1.59,0.89-3.07,1.67-4.41,2.33
		c-1.26,0.75-2.38,1.37-3.36,1.83c-1.98,0.88-3.15,1.34-3.64,0.85c-0.45-0.45-0.18-1.82,1.09-3.66c0.62-0.94,1.44-2.04,2.45-3.28
		c1.09-1.15,2.39-2.43,3.88-3.83c-1.57,1.16-3.14,2.28-4.62,3.43c-1.42,1.23-2.81,2.44-4.16,3.61c-1.26,1.28-2.48,2.53-3.67,3.75
		c-1.17,1.24-2.17,2.56-3.22,3.78c-1.07,1.2-1.92,2.52-2.79,3.74c-0.86,1.24-1.74,2.4-2.41,3.63c-0.71,1.21-1.39,2.37-2.05,3.47
		c-0.62,1.13-1.11,2.25-1.64,3.3c-0.49,1.06-1.04,2.03-1.4,3.01c-0.38,0.97-0.74,1.88-1.07,2.73c-0.33,0.85-0.64,1.64-0.92,2.36
		c-0.23,0.74-0.43,1.41-0.62,2.02C30.49,82.55,30.05,83.84,29.95,83.82z M99.97,28.89c-2.38,0.12-4.71,0.17-6.93,0.43
		c-1.1,0.17-2.19,0.35-3.26,0.51c-1.06,0.18-2.11,0.31-3.1,0.62c-0.98,0.27-1.95,0.53-2.9,0.79c-0.93,0.28-1.85,0.48-2.7,0.85
		c-1.71,0.66-3.28,1.3-4.69,1.91c-1.38,0.72-2.6,1.41-3.65,2.03c-0.53,0.31-1.01,0.61-1.45,0.9c-0.42,0.31-0.8,0.62-1.13,0.91
		c-1.33,1.14-1.94,1.95-1.72,2.37c0.22,0.41,1.24,0.39,2.86,0.01c0.41-0.09,0.85-0.21,1.33-0.34c0.49-0.1,1.03-0.22,1.59-0.35
		c1.13-0.27,2.39-0.6,3.76-1c5.59-1.33,13.28-2.81,21.88-2.83l0.12-0.01l0.12,0.01c8.61,0.02,16.3,1.5,21.88,2.83
		c1.37,0.4,2.63,0.73,3.76,1c0.56,0.13,1.1,0.25,1.59,0.35c0.48,0.13,0.92,0.25,1.33,0.34c1.62,0.38,2.64,0.4,2.86-0.01
		c0.22-0.41-0.39-1.23-1.72-2.37c-0.33-0.28-0.71-0.59-1.13-0.91c-0.44-0.29-0.92-0.58-1.45-0.9c-1.05-0.62-2.27-1.31-3.65-2.03
		c-1.42-0.61-2.99-1.25-4.69-1.91c-0.84-0.37-1.76-0.57-2.7-0.85c-0.95-0.26-1.92-0.52-2.9-0.79c-0.99-0.3-2.04-0.43-3.1-0.62
		c-1.07-0.17-2.16-0.34-3.26-0.51C104.67,29.05,102.34,29.01,99.97,28.89z"/>
	<path class="st6" d="M82.33,164.97c0.41-1.62-4.64-4.13-9.99-7.73c-2.71-1.75-5.46-3.85-7.88-5.87c-2.44-2-4.45-4.07-5.89-5.56
		c-2.74-3.15-3.4-3.92,1.16,0.15c2.33,1.96,6.11,5.06,12.46,8.32c3.17,1.61,7.02,3.21,11.63,4.46c2.3,0.66,4.81,1.13,7.49,1.55
		c2.7,0.36,5.58,0.58,8.64,0.61c3.06-0.03,5.95-0.25,8.64-0.61c2.68-0.42,5.2-0.89,7.49-1.55c4.62-1.25,8.46-2.85,11.63-4.46
		c6.35-3.26,10.13-6.37,12.46-8.32c4.56-4.06,3.91-3.3,1.16-0.15c-1.44,1.5-3.45,3.56-5.89,5.56c-2.42,2.02-5.17,4.12-7.87,5.87
		c-5.35,3.6-10.4,6.12-9.99,7.73c0.21,0.79,1.79,1.18,4.2,1.04c2.42-0.1,5.65-0.77,9.08-1.89c3.45-1.09,7.02-2.78,10.2-4.58
		c3.2-1.77,5.92-3.78,7.9-5.25c1.93-1.53,3.13-2.51,3.22-2.44c0.04,0.03-0.2,0.32-0.79,0.93c-0.6,0.59-1.47,1.56-2.88,2.75
		c-1.37,1.23-3.21,2.76-5.65,4.51c-2.42,1.77-5.51,3.69-9.34,5.67c-3.84,1.96-8.49,3.9-14.08,5.41c-2.78,0.79-5.81,1.37-9.06,1.87
		c-3.25,0.44-6.73,0.71-10.43,0.74c-3.7-0.03-7.18-0.29-10.43-0.74c-3.24-0.5-6.28-1.08-9.06-1.87c-5.58-1.51-10.23-3.45-14.08-5.41
		c-3.83-1.98-6.92-3.9-9.34-5.67c-2.44-1.75-4.28-3.28-5.65-4.51c-1.41-1.19-2.28-2.16-2.88-2.75c-0.59-0.6-0.83-0.89-0.79-0.93
		c0.08-0.07,1.29,0.91,3.22,2.44c1.98,1.46,4.69,3.47,7.9,5.25c3.18,1.8,6.75,3.48,10.2,4.58c3.43,1.12,6.66,1.79,9.08,1.89
		C80.54,166.16,82.12,165.76,82.33,164.97z"/>
	<path class="st7" d="M34.39,116.51c1.55-0.39,3.68,3.61,7.38,9.35c1.83,2.88,4.06,6.21,6.81,9.64c2.75,3.43,6,6.97,9.74,10.35
		c7.49,6.75,15.53,11.34,21.64,14.37c6.1,3.09,10.29,4.81,10.06,6.38c-0.18,1.4-4.95,2.41-12.49,0.95
		c-3.75-0.72-8.15-2.08-12.74-4.31c-4.58-2.23-9.37-5.29-13.76-9.26c-4.39-3.96-7.99-8.37-10.69-12.7
		c-2.71-4.33-4.51-8.58-5.61-12.25c-0.3-0.91-0.53-1.79-0.7-2.63c-0.19-0.84-0.36-1.63-0.48-2.38c-0.2-1.51-0.34-2.81-0.32-3.89
		C33.27,117.95,33.66,116.69,34.39,116.51z M39.72,130.52c-0.42,0.21-0.5,1.03-0.27,2.35c0.3,1.28,0.85,3.11,1.89,5.19
		c0.98,2.12,2.45,4.48,4.27,6.98c1.88,2.45,4.12,5.03,6.79,7.4c5.33,4.77,11.07,7.94,15.46,9.47c4.39,1.57,7.35,1.69,7.68,0.83
		c0.65-1.8-9.04-6.65-18.6-15.34c-2.42-2.14-4.57-4.35-6.53-6.37c-1.91-2.06-3.64-3.95-5.05-5.59c-1.47-1.61-2.6-2.98-3.58-3.83
		C40.85,130.71,40.14,130.3,39.72,130.52z"/>
	
		<linearGradient id="SVGID_00000010271060532543926360000013308733191413074095_" gradientUnits="userSpaceOnUse" x1="99.9664" y1="160.7021" x2="99.9664" y2="38.5576">
		<stop  offset="0" style="stop-color:#FFFFFF"/>
		<stop  offset="0.0508" style="stop-color:#F6F6F6"/>
		<stop  offset="0.5101" style="stop-color:#A9A9A9"/>
		<stop  offset="0.8377" style="stop-color:#797979"/>
		<stop  offset="1" style="stop-color:#676767"/>
	</linearGradient>
	<path style="fill:url(#SVGID_00000010271060532543926360000013308733191413074095_);" d="M161.04,99.63
		c0,33.73-27.34,61.07-61.07,61.07c-33.73,0-61.07-27.34-61.07-61.07c0-33.73,27.34-61.07,61.07-61.07
		C133.7,38.56,161.04,65.9,161.04,99.63z"/>
	
		<linearGradient id="SVGID_00000077290505326722883040000015699103554987768508_" gradientUnits="userSpaceOnUse" x1="99.9663" y1="159.1082" x2="99.9663" y2="40.1542">
		<stop  offset="0" style="stop-color:#ECECEC"/>
		<stop  offset="1" style="stop-color:#D9D9D9"/>
	</linearGradient>
	<path style="fill:url(#SVGID_00000077290505326722883040000015699103554987768508_);" d="M159.44,99.63
		c0,32.85-26.63,59.48-59.48,59.48c-32.85,0-59.48-26.63-59.48-59.48c0-32.85,26.63-59.48,59.48-59.48
		C132.81,40.15,159.44,66.78,159.44,99.63z"/>
	<path class="st5" d="M147.53,147.83c-0.62-0.64-0.11-2.25,1.06-4.38c1.16-2.14,2.91-4.85,4.92-7.79c1.98-2.95,3.8-5.62,5.37-7.49
		c1.52-1.89,2.83-2.97,3.65-2.63c0.8,0.33,0.95,2.05,0.39,4.59c-0.6,2.51-1.95,5.83-4.14,9.08c-2.2,3.24-4.73,5.77-6.86,7.25
		C149.79,147.95,148.13,148.45,147.53,147.83z"/>
	<path class="st10" d="M62.55,156.07c0.25-0.38,1.72,0.13,3.93,1.11c2.22,0.97,5.23,2.33,8.6,3.72c3.38,1.37,6.5,2.46,8.76,3.33
		c2.27,0.83,3.68,1.5,3.6,1.95c-0.08,0.42-1.65,0.53-4.14,0.24c-2.48-0.34-5.87-1.13-9.41-2.57c-3.54-1.46-6.54-3.22-8.54-4.72
		C63.35,157.6,62.31,156.42,62.55,156.07z"/>
	<path class="st11" d="M35.9,121.45c0.84-0.28,2.06,0.83,3.43,2.74c1.39,1.91,3.01,4.58,4.7,7.57c1.72,2.97,3.21,5.71,4.15,7.88
		c0.95,2.14,1.3,3.76,0.63,4.34c-0.65,0.57-2.22-0.03-4.19-1.6c-1.94-1.59-4.21-4.19-6.1-7.47c-1.86-3.29-2.97-6.57-3.35-9.04
		C34.79,123.38,35.08,121.72,35.9,121.45z"/>
</g>
<g>
	
		<radialGradient id="SVGID_00000087413766161605001440000008817627478398095540_" cx="99.9673" cy="100.6985" r="59.8408" gradientUnits="userSpaceOnUse">
		<stop  offset="0.7338" style="stop-color:#B2CB0E"/>
		<stop  offset="0.8049" style="stop-color:#A7C713"/>
		<stop  offset="0.9298" style="stop-color:#89BD21"/>
		<stop  offset="1" style="stop-color:#76B72A"/>
	</radialGradient>
	
		<ellipse style="fill:url(#SVGID_00000087413766161605001440000008817627478398095540_);" cx="99.97" cy="100.7" rx="59.48" ry="60.2"/>
	<ellipse class="st13" cx="99.97" cy="100.7" rx="59.48" ry="60.2"/>
</g>
</svg>
